<svg width="20" height="20" viewBox="0 0 20 20" fill="none" xmlns="http://www.w3.org/2000/svg">
<path d="M15.8333 7.2583L11.3891 3.80164C10.9991 3.49823 10.5191 3.3335 10.025 3.3335C9.53083 3.3335 9.05081 3.49823 8.6608 3.80164L4.21663 7.2583C3.9495 7.46604 3.73338 7.73208 3.58476 8.03609C3.43615 8.34011 3.35897 8.67407 3.35913 9.01247V15.0125C3.35913 15.4545 3.53473 15.8784 3.84729 16.191C4.15985 16.5035 4.58377 16.6791 5.0258 16.6791H15.0258C15.4678 16.6791 15.8917 16.5035 16.2043 16.191C16.5169 15.8784 16.6925 15.4545 16.6925 15.0125V9.01247C16.6925 8.32664 16.375 7.67914 15.8333 7.2583Z" stroke="#1B48DA" stroke-width="1.66667" stroke-linecap="round" stroke-linejoin="round"/>
<path d="M13.3333 12.5C11.4916 13.6108 8.50663 13.6108 6.66663 12.5" stroke="#1B48DA" stroke-width="1.66667" stroke-linecap="round" stroke-linejoin="round"/>
</svg>
